<svg width="81" height="80" viewBox="0 0 81 80" fill="none" xmlns="http://www.w3.org/2000/svg">
<g clip-path="url(#clip0_5_195)">
<path d="M40.6001 7.20312C51.2876 7.20312 52.5532 7.25 56.7564 7.4375C60.6626 7.60937 62.772 8.26563 64.1782 8.8125C66.0376 9.53125 67.3814 10.4063 68.772 11.7969C70.1782 13.2031 71.0376 14.5313 71.7564 16.3906C72.3032 17.7969 72.9595 19.9219 73.1314 23.8125C73.3189 28.0312 73.3657 29.2969 73.3657 39.9688C73.3657 50.6563 73.3189 51.9219 73.1314 56.125C72.9595 60.0313 72.3032 62.1406 71.7564 63.5469C71.0376 65.4063 70.1626 66.75 68.772 68.1406C67.3657 69.5469 66.0376 70.4063 64.1782 71.125C62.772 71.6719 60.647 72.3281 56.7564 72.5C52.5376 72.6875 51.272 72.7344 40.6001 72.7344C29.9126 72.7344 28.647 72.6875 24.4439 72.5C20.5376 72.3281 18.4282 71.6719 17.022 71.125C15.1626 70.4063 13.8188 69.5313 12.4282 68.1406C11.022 66.7344 10.1626 65.4063 9.44385 63.5469C8.89697 62.1406 8.24072 60.0156 8.06885 56.125C7.88135 51.9063 7.83447 50.6406 7.83447 39.9688C7.83447 29.2813 7.88135 28.0156 8.06885 23.8125C8.24072 19.9062 8.89697 17.7969 9.44385 16.3906C10.1626 14.5313 11.0376 13.1875 12.4282 11.7969C13.8345 10.3906 15.1626 9.53125 17.022 8.8125C18.4282 8.26563 20.5532 7.60937 24.4439 7.4375C28.647 7.25 29.9126 7.20312 40.6001 7.20312ZM40.6001 0C29.7407 0 28.3814 0.046875 24.1157 0.234375C19.8657 0.421875 16.9438 1.10937 14.4126 2.09375C11.772 3.125 9.5376 4.48438 7.31885 6.71875C5.08447 8.9375 3.7251 11.1719 2.69385 13.7969C1.70947 16.3438 1.02197 19.25 0.834473 23.5C0.646973 27.7812 0.600098 29.1406 0.600098 40C0.600098 50.8594 0.646973 52.2188 0.834473 56.4844C1.02197 60.7344 1.70947 63.6563 2.69385 66.1875C3.7251 68.8281 5.08447 71.0625 7.31885 73.2812C9.5376 75.5 11.772 76.875 14.397 77.8906C16.9438 78.875 19.8501 79.5625 24.1001 79.75C28.3657 79.9375 29.7251 79.9844 40.5845 79.9844C51.4439 79.9844 52.8032 79.9375 57.0689 79.75C61.3189 79.5625 64.2407 78.875 66.772 77.8906C69.397 76.875 71.6314 75.5 73.8501 73.2812C76.0689 71.0625 77.4439 68.8281 78.4595 66.2031C79.4439 63.6563 80.1314 60.75 80.3189 56.5C80.5064 52.2344 80.5532 50.875 80.5532 40.0156C80.5532 29.1563 80.5064 27.7969 80.3189 23.5313C80.1314 19.2813 79.4439 16.3594 78.4595 13.8281C77.4751 11.1719 76.1157 8.9375 73.8814 6.71875C71.6626 4.5 69.4282 3.125 66.8032 2.10938C64.2564 1.125 61.3501 0.4375 57.1001 0.25C52.8189 0.046875 51.4595 0 40.6001 0Z" fill="white"/>
<path d="M40.6001 19.4531C29.2563 19.4531 20.0532 28.6562 20.0532 40C20.0532 51.3437 29.2563 60.5469 40.6001 60.5469C51.9438 60.5469 61.147 51.3437 61.147 40C61.147 28.6562 51.9438 19.4531 40.6001 19.4531ZM40.6001 53.3281C33.2407 53.3281 27.272 47.3594 27.272 40C27.272 32.6406 33.2407 26.6719 40.6001 26.6719C47.9595 26.6719 53.9282 32.6406 53.9282 40C53.9282 47.3594 47.9595 53.3281 40.6001 53.3281Z" fill="white"/>
<path d="M66.7563 18.6405C66.7563 21.2967 64.6001 23.4374 61.9595 23.4374C59.3032 23.4374 57.1626 21.2811 57.1626 18.6405C57.1626 15.9842 59.3188 13.8436 61.9595 13.8436C64.6001 13.8436 66.7563 15.9999 66.7563 18.6405Z" fill="white"/>
</g>
<defs>
<clipPath id="clip0_5_195">
<rect width="80" height="80" fill="white" transform="translate(0.600098)"/>
</clipPath>
</defs>
</svg>
