<svg width="81" height="80" viewBox="0 0 81 80" fill="none" xmlns="http://www.w3.org/2000/svg">
<g clip-path="url(#clip0_5_193)">
<path d="M74.8782 0H6.7063C3.44067 0 0.800049 2.57813 0.800049 5.76562V74.2188C0.800049 77.4062 3.44067 80 6.7063 80H74.8782C78.1438 80 80.8 77.4062 80.8 74.2344V5.76562C80.8 2.57813 78.1438 0 74.8782 0ZM24.5344 68.1719H12.6594V29.9844H24.5344V68.1719ZM18.5969 24.7812C14.7844 24.7812 11.7063 21.7031 11.7063 17.9062C11.7063 14.1094 14.7844 11.0312 18.5969 11.0312C22.3938 11.0312 25.4719 14.1094 25.4719 17.9062C25.4719 21.6875 22.3938 24.7812 18.5969 24.7812ZM68.9719 68.1719H57.1125V49.6094C57.1125 45.1875 57.0344 39.4844 50.9407 39.4844C44.7688 39.4844 43.8313 44.3125 43.8313 49.2969V68.1719H31.9876V29.9844H43.3625V35.2031H43.5188C45.0969 32.2031 48.9719 29.0312 54.7376 29.0312C66.7532 29.0312 68.9719 36.9375 68.9719 47.2188V68.1719Z" fill="white"/>
</g>
<defs>
<clipPath id="clip0_5_193">
<rect width="80" height="80" fill="white" transform="translate(0.800049)"/>
</clipPath>
</defs>
</svg>
