<svg width="101" height="101" viewBox="0 0 101 101" fill="none" xmlns="http://www.w3.org/2000/svg">
<path d="M50.3164 16.1133C41.6871 16.1544 34.7249 23.1831 34.766 31.8125C34.8071 40.4418 41.8358 47.404 50.4652 47.3629C59.0945 47.3219 66.0567 40.2931 66.0156 31.6637C65.9746 23.0344 58.9458 16.0722 50.3164 16.1133Z" fill="#D9D9D9" fill-opacity="0.05"/>
<path d="M33.8384 55.7755C25.209 55.8166 18.2468 62.8453 18.2879 71.4747L18.3115 76.4258C18.3264 79.5642 20.6136 82.2293 23.7134 82.7203C41.5555 85.5462 59.7378 85.4597 77.5522 82.4641C80.6472 81.9436 82.909 79.2569 82.8941 76.1184L82.8705 71.1673C82.8294 62.538 75.8007 55.5758 67.1713 55.6169L65.751 55.6236C64.9823 55.6273 64.219 55.7525 63.4894 55.9945L59.8888 57.1893C53.8054 59.2077 47.2378 59.239 41.1355 57.2785L37.5237 56.1181C36.7918 55.883 36.0273 55.7651 35.2586 55.7687L33.8384 55.7755Z" fill="#D9D9D9" fill-opacity="0.05"/>
</svg>
