<svg width="100" height="100" viewBox="0 0 100 100" fill="none" xmlns="http://www.w3.org/2000/svg">
<path d="M30.1073 0.171282C28.5408 0.528334 26.9675 1.43512 26.0114 3.07756L1.048 45.9238C-0.349332 48.316 -0.349332 51.5582 1.048 53.9505L26.0114 96.7967C27.9236 100.082 31.9202 100.996 34.7879 98.8104C37.6556 96.6181 38.455 92.0478 36.5435 88.77L13.9204 49.9371L36.5435 11.1043C38.455 7.82652 37.6556 3.25621 34.7879 1.06391C33.3538 -0.0286674 31.6737 -0.18577 30.1073 0.171282ZM69.8927 0.171282C68.3263 -0.18577 66.6462 -0.0286674 65.2121 1.06391C62.3444 3.25621 61.545 7.82652 63.4565 11.1043L86.0796 49.9371L63.4565 88.77C61.545 92.0478 62.3444 96.6181 65.2121 98.8104C68.0798 100.996 72.0764 100.082 73.9886 96.7967L98.952 53.9505C100.349 51.5582 100.349 48.316 98.952 45.9238L73.9886 3.07756C73.0325 1.43512 71.4585 0.528334 69.8927 0.171282Z" fill="#D9D9D9" fill-opacity="0.05"/>
</svg>
